<svg width="24" height="26" viewBox="0 0 24 26" fill="none" xmlns="http://www.w3.org/2000/svg">
<path d="M4.00657 12.8811C4.00657 12.1537 4.22226 11.4542 4.62313 10.8619C4.49142 10.4371 4.42336 9.99193 4.42336 9.55073C4.42336 7.64817 5.62334 5.99072 7.36298 5.36846C7.51812 3.94993 8.42861 2.72925 9.71168 2.14497C9.05224 1.07842 8.01137 0.453065 7.05183 0.60852C6.35836 0.721137 5.78378 1.19192 5.44611 1.90251C4.83838 1.6234 4.20634 1.57702 3.6521 1.77179C3.05233 1.98289 2.58648 2.43424 2.30493 3.07682C1.93146 3.92784 1.93102 5.0231 2.29212 6.06447C1.80549 6.39835 1.44174 6.889 1.22915 7.5042C0.871585 8.53718 0.99092 9.78348 1.55622 10.9251C1.61809 11.0496 1.68572 11.1733 1.75953 11.2947C1.22871 11.6397 0.831364 12.1511 0.618329 12.7751C0.27977 13.7653 0.429602 14.932 1.02937 15.9752C1.30473 16.4544 1.66936 16.8885 2.09411 17.2453C1.95223 17.8389 2.05963 18.4912 2.40526 19.0816C2.88835 19.9053 3.75862 20.464 4.68855 20.558C5.93405 22.8969 7.43945 24.0902 9.59235 25.1241C7.03459 22.1029 5.61229 19.6006 5.53229 15.8272C4.59087 15.1555 4.00657 14.0519 4.00657 12.8811Z" fill="#28B446"/>
<path d="M23.6864 9.43076C23.7217 7.71103 22.7109 6.16399 21.1445 5.49535C20.916 4.0278 19.7324 2.88088 18.2615 2.68656C18.2482 2.54038 18.2204 2.39464 18.1784 2.25066C17.9189 1.36563 17.138 0.699203 16.2359 0.592327C15.6458 0.522107 15.088 0.670055 14.627 0.993773C14.216 0.722168 13.7373 0.575545 13.2467 0.575545C11.9831 0.575545 10.933 1.50828 10.75 2.72101C9.30513 3.01248 8.22183 4.29897 8.22183 5.80406C8.22183 5.88488 8.22537 5.96569 8.23156 6.04784C6.55644 6.34903 5.30563 7.80334 5.30563 9.55088C5.30563 10.0561 5.4148 10.5569 5.6243 11.0176C5.15359 11.5206 4.88928 12.1826 4.88928 12.8812C4.88928 13.9253 5.48949 14.8721 6.41191 15.3279C6.37125 19.3304 7.83024 21.7603 10.6766 25.0346L10.837 25.217L10.8662 25.2501C11.2976 25.7337 11.9186 25.9996 12.6156 25.9996C12.7362 25.9996 12.8551 25.9894 12.9723 25.9744L12.8211 25.6811C11.8713 23.4239 11.2883 21.4198 10.963 19.6383C9.73739 19.2611 9.20745 18.2824 9.18403 18.2374C9.07 18.0219 9.15353 17.7542 9.36922 17.6407C9.58358 17.5272 9.8501 17.6094 9.96545 17.8236C9.98181 17.8541 10.239 18.3063 10.8017 18.6145C10.6479 17.4588 10.6032 16.4033 10.6479 15.452C10.6426 15.4039 10.6448 15.3566 10.6558 15.308C10.7327 13.9482 10.9811 12.7973 11.3091 11.8328C9.82004 10.9456 9.63618 9.29385 9.76435 8.49229C9.8028 8.25159 10.03 8.0851 10.2704 8.12573C10.5113 8.16415 10.6753 8.38983 10.6377 8.63008C10.6267 8.70118 10.4282 10.1661 11.6339 10.9902C11.694 10.8511 11.7546 10.7128 11.8174 10.5834C12.9798 8.18623 14.6412 6.99338 15.2843 6.59988C15.2829 5.71529 15.8633 4.94684 15.8907 4.91107C16.0387 4.71719 16.3172 4.68098 16.5099 4.82849C16.7035 4.97643 16.7406 5.25334 16.593 5.44677C16.4944 5.5775 16.3008 5.90298 16.2142 6.26115C17.2321 6.14588 18.2257 6.72001 18.2761 6.75004C18.4869 6.87414 18.5563 7.14486 18.4325 7.35463C18.3499 7.49419 18.2022 7.57192 18.0515 7.57192C17.9751 7.57192 17.8982 7.55249 17.8279 7.51097C17.5198 7.33123 16.5819 6.9342 15.9393 7.24158C15.8275 7.29855 15.0752 7.70308 14.2191 8.59563C15.9724 8.468 17.1919 8.98824 17.2533 9.01474C17.4765 9.11322 17.5782 9.37379 17.4805 9.59681C17.4076 9.76198 17.2454 9.86091 17.0752 9.86091C17.0164 9.86091 16.9563 9.84943 16.8988 9.82381C16.8657 9.80968 15.3705 9.19051 13.3886 9.60255C12.9917 10.1603 12.6098 10.829 12.2934 11.6257C12.2925 11.684 12.2806 11.7432 12.2549 11.7997C12.2381 11.8372 12.2156 11.8699 12.1908 11.8999C11.9394 12.5884 11.7365 13.3626 11.6145 14.2371C12.6138 13.6108 13.8744 13.5834 13.9464 13.5826H13.9517C14.193 13.5826 14.3897 13.776 14.3932 14.018C14.3968 14.2618 14.2014 14.4619 13.9579 14.4658C13.9393 14.4663 12.1206 14.5087 11.5018 15.5629C11.4585 16.64 11.5332 17.8426 11.763 19.1807C11.7652 19.1909 11.7665 19.201 11.7679 19.2116C12.0772 20.9954 12.6589 23.0141 13.6229 25.3058L13.8332 25.7112C14.1577 25.5478 14.437 25.3217 14.6363 25.0434C14.9691 24.5788 15.0478 24.0153 14.8569 23.4566C14.0578 21.1138 14.0825 19.326 14.9302 18.1424C16.029 16.6078 18.3176 16.3786 19.5834 16.3786C20.2354 16.3786 20.6831 16.4386 20.6875 16.4395L21.1419 16.5013L21.1874 16.0456C21.1936 15.9855 21.324 14.5626 20.493 13.5958C20.4449 13.5397 20.394 13.4867 20.3419 13.4359C20.5766 13.3834 20.8086 13.3088 21.0367 13.2125C22.6119 12.5487 23.6523 11.0639 23.6864 9.43076Z" fill="#28B446"/>
</svg>
